<?xml version="1.0" encoding="utf-8"?>
<!-- Generator: Adobe Illustrator 23.0.1, SVG Export Plug-In . SVG Version: 6.00 Build 0)  -->
<svg version="1.1" id="Layer_1" xmlns="http://www.w3.org/2000/svg" xmlns:xlink="http://www.w3.org/1999/xlink" x="0px" y="0px"
	 viewBox="0 0 883.4 167.8" style="enable-background:new 0 0 883.4 167.8;" xml:space="preserve">
<style type="text/css">
	.st0{fill:#FFFFFF;stroke:#FFFFFF;stroke-width:4;stroke-miterlimit:10;}
	.st1{enable-background:new    ;}
	.st2{fill:#FFFFFF;}
	.st3{fill:none;stroke:#FFFFFF;stroke-miterlimit:10;}
	.st4{fill:none;stroke:#FFFFFF;stroke-width:1.6;stroke-miterlimit:10;}
</style>
<title>5Asset 3</title>
<g>
	<g id="Layer_1-2">
		<g id="Layer_1-2-2">
			<path class="st0" d="M49.6,3c1.5,0,2.7,1.2,2.7,2.7c0,0,0,0,0,0v43.8c0,1.5-1.2,2.7-2.7,2.7H5.7c-1.5,0-2.7-1.2-2.7-2.7
				c0,0,0,0,0,0V5.7C3,4.2,4.2,3,5.7,3H49.6 M49.6,2H5.7C3.7,2,2,3.7,2,5.7v43.8c0,2,1.7,3.7,3.7,3.7h43.8c2,0,3.7-1.7,3.7-3.7V5.7
				C53.3,3.7,51.6,2,49.6,2z"/>
			<g class="st1">
				<path class="st2" d="M19.5,14.7h9.6c4.9,0,7.3,2.3,7.3,6.8c0,4.2-2.1,6.5-6.2,6.9l5.9,10.3h-3.5l-5.8-10.2h-4.3v6.3h-3.1V14.7z
					 M33.4,21.5c0-2.5-1.3-3.7-3.9-3.7h-6.9v7.5h6.9C32.1,25.3,33.4,24,33.4,21.5z"/>
			</g>
			<g class="st1">
				<path class="st3" d="M19.5,14.7h9.6c4.9,0,7.3,2.3,7.3,6.8c0,4.2-2.1,6.5-6.2,6.9l5.9,10.3h-3.5l-5.8-10.2h-4.3v6.3h-3.1V14.7z
					 M33.4,21.5c0-2.5-1.3-3.7-3.9-3.7h-6.9v7.5h6.9C32.1,25.3,33.4,24,33.4,21.5z"/>
			</g>
			<g class="st1">
				<path class="st2" d="M19.5,14.7h9.6c4.9,0,7.3,2.3,7.3,6.8c0,4.2-2.1,6.5-6.2,6.9l5.9,10.3h-3.5l-5.8-10.2h-4.3v6.3h-3.1V14.7z
					 M33.4,21.5c0-2.5-1.3-3.7-3.9-3.7h-6.9v7.5h6.9C32.1,25.3,33.4,24,33.4,21.5z"/>
			</g>
			<g class="st1">
				<path class="st4" d="M19.5,14.7h9.6c4.9,0,7.3,2.3,7.3,6.8c0,4.2-2.1,6.5-6.2,6.9l5.9,10.3h-3.5l-5.8-10.2h-4.3v6.3h-3.1V14.7z
					 M33.4,21.5c0-2.5-1.3-3.7-3.9-3.7h-6.9v7.5h6.9C32.1,25.3,33.4,24,33.4,21.5z"/>
			</g>
			<path class="st0" d="M105.8,3c1.5,0,2.7,1.2,2.7,2.7c0,0,0,0,0,0v43.8c0,1.5-1.2,2.7-2.7,2.7c0,0,0,0,0,0H61.9
				c-1.5,0-2.7-1.2-2.7-2.7V5.7c0-1.5,1.2-2.7,2.7-2.7c0,0,0,0,0,0H105.8 M105.8,2H61.9c-2,0-3.7,1.7-3.7,3.7v43.8
				c0,2,1.7,3.7,3.7,3.7h43.8c2,0,3.7-1.7,3.7-3.7V5.7C109.5,3.7,107.8,2,105.8,2z"/>
			<g class="st1">
				<path class="st2" d="M96.7,39.5h-3.6l-3.6-7.1H78l-1.5,3.1h-3.6l10.8-21.6L96.7,39.5z M79.5,29.3H88l-4.3-9L79.5,29.3z"/>
			</g>
			<g class="st1">
				<path class="st3" d="M96.7,39.5h-3.6l-3.6-7.1H78l-1.5,3.1h-3.6l10.8-21.6L96.7,39.5z M79.5,29.3H88l-4.3-9L79.5,29.3z"/>
			</g>
			<g class="st1">
				<path class="st2" d="M96.7,39.5h-3.6l-3.6-7.1H78l-1.5,3.1h-3.6l10.8-21.6L96.7,39.5z M79.5,29.3H88l-4.3-9L79.5,29.3z"/>
			</g>
			<g class="st1">
				<path class="st4" d="M96.7,39.5h-3.6l-3.6-7.1H78l-1.5,3.1h-3.6l10.8-21.6L96.7,39.5z M79.5,29.3H88l-4.3-9L79.5,29.3z"/>
			</g>
			<path class="st0" d="M162,3c1.5,0,2.7,1.2,2.7,2.7c0,0,0,0,0,0v43.8c0,1.5-1.2,2.7-2.7,2.7l0,0h-43.8c-1.5,0-2.7-1.2-2.7-2.7
				c0,0,0,0,0,0V5.7c0-1.5,1.2-2.7,2.7-2.7l0,0H162 M162,2h-43.8c-2,0-3.7,1.7-3.7,3.7v43.8c0,2,1.7,3.7,3.7,3.7H162
				c2.1,0,3.7-1.7,3.7-3.7V5.7C165.7,3.7,164.1,2,162,2z"/>
			<g class="st1">
				<path class="st2" d="M135.9,38.6h-3.1v-24h9.6c4.9,0,7.3,2.3,7.3,6.8c0,4.6-2.4,6.9-7.3,6.9h-6.5V38.6z M146.6,21.5
					c0-2.5-1.3-3.7-3.9-3.7h-6.9v7.5h6.9C145.3,25.3,146.6,24,146.6,21.5z"/>
			</g>
			<g class="st1">
				<path class="st3" d="M135.9,38.6h-3.1v-24h9.6c4.9,0,7.3,2.3,7.3,6.8c0,4.6-2.4,6.9-7.3,6.9h-6.5V38.6z M146.6,21.5
					c0-2.5-1.3-3.7-3.9-3.7h-6.9v7.5h6.9C145.3,25.3,146.6,24,146.6,21.5z"/>
			</g>
			<g class="st1">
				<path class="st2" d="M135.9,38.6h-3.1v-24h9.6c4.9,0,7.3,2.3,7.3,6.8c0,4.6-2.4,6.9-7.3,6.9h-6.5V38.6z M146.6,21.5
					c0-2.5-1.3-3.7-3.9-3.7h-6.9v7.5h6.9C145.3,25.3,146.6,24,146.6,21.5z"/>
			</g>
			<g class="st1">
				<path class="st4" d="M135.9,38.6h-3.1v-24h9.6c4.9,0,7.3,2.3,7.3,6.8c0,4.6-2.4,6.9-7.3,6.9h-6.5V38.6z M146.6,21.5
					c0-2.5-1.3-3.7-3.9-3.7h-6.9v7.5h6.9C145.3,25.3,146.6,24,146.6,21.5z"/>
			</g>
			<path class="st0" d="M49.6,59.2c1.5,0,2.7,1.2,2.7,2.7v43.8c0,1.5-1.2,2.7-2.7,2.7c0,0,0,0,0,0H5.7c-1.5,0-2.7-1.2-2.7-2.7V61.9
				c0-1.5,1.2-2.7,2.7-2.7c0,0,0,0,0,0H49.6 M49.6,58.2H5.7c-2,0-3.7,1.7-3.7,3.7v43.8c0,2,1.7,3.7,3.7,3.7h43.8
				c2,0,3.7-1.7,3.7-3.7V61.9C53.3,59.9,51.6,58.2,49.6,58.2L49.6,58.2z"/>
			<g class="st1">
				<path class="st2" d="M25.5,93.6v-20h3.1v20H25.5z"/>
			</g>
			<g class="st1">
				<path class="st3" d="M25.5,93.6v-20h3.1v20H25.5z"/>
			</g>
			<g class="st1">
				<path class="st2" d="M25.5,93.6v-20h3.1v20H25.5z"/>
			</g>
			<g class="st1">
				<path class="st4" d="M25.5,93.6v-20h3.1v20H25.5z"/>
			</g>
			<path class="st0" d="M105.8,59.2c1.5,0,2.7,1.2,2.7,2.7c0,0,0,0,0,0v43.8c0,1.5-1.2,2.7-2.7,2.7l0,0H61.9c-1.5,0-2.7-1.2-2.7-2.7
				c0,0,0,0,0,0V61.9c0-1.5,1.2-2.7,2.7-2.7H105.8 M105.8,58.2H61.9c-2,0-3.7,1.7-3.7,3.7v43.9c0,2,1.7,3.7,3.7,3.7h43.8
				c2,0,3.7-1.7,3.7-3.7V61.9C109.5,59.9,107.8,58.2,105.8,58.2L105.8,58.2z"/>
			<g class="st1">
				<path class="st2" d="M75.9,73.6h7.2c3.3,0,5.8,0.8,7.4,2.4c1.6,1.6,2.4,4.1,2.4,7.4c0,3.4-0.8,5.9-2.4,7.6
					c-1.6,1.7-4.1,2.6-7.4,2.6h-7.3V73.6z M89.8,83.4c0-2.3-0.5-3.9-1.4-5c-1-1.1-2.4-1.6-4.4-1.6h-4.9v13.8H84
					c1.9,0,3.4-0.6,4.4-1.8C89.3,87.5,89.8,85.7,89.8,83.4z"/>
			</g>
			<g class="st1">
				<path class="st3" d="M75.9,73.6h7.2c3.3,0,5.8,0.8,7.4,2.4c1.6,1.6,2.4,4.1,2.4,7.4c0,3.4-0.8,5.9-2.4,7.6
					c-1.6,1.7-4.1,2.6-7.4,2.6h-7.3V73.6z M89.8,83.4c0-2.3-0.5-3.9-1.4-5c-1-1.1-2.4-1.6-4.4-1.6h-4.9v13.8H84
					c1.9,0,3.4-0.6,4.4-1.8C89.3,87.5,89.8,85.7,89.8,83.4z"/>
			</g>
			<g class="st1">
				<path class="st2" d="M75.9,73.6h7.2c3.3,0,5.8,0.8,7.4,2.4c1.6,1.6,2.4,4.1,2.4,7.4c0,3.4-0.8,5.9-2.4,7.6
					c-1.6,1.7-4.1,2.6-7.4,2.6h-7.3V73.6z M89.8,83.4c0-2.3-0.5-3.9-1.4-5c-1-1.1-2.4-1.6-4.4-1.6h-4.9v13.8H84
					c1.9,0,3.4-0.6,4.4-1.8C89.3,87.5,89.8,85.7,89.8,83.4z"/>
			</g>
			<g class="st1">
				<path class="st4" d="M75.9,73.6h7.2c3.3,0,5.8,0.8,7.4,2.4c1.6,1.6,2.4,4.1,2.4,7.4c0,3.4-0.8,5.9-2.4,7.6
					c-1.6,1.7-4.1,2.6-7.4,2.6h-7.3V73.6z M89.8,83.4c0-2.3-0.5-3.9-1.4-5c-1-1.1-2.4-1.6-4.4-1.6h-4.9v13.8H84
					c1.9,0,3.4-0.6,4.4-1.8C89.3,87.5,89.8,85.7,89.8,83.4z"/>
			</g>
			<path class="st0" d="M162,59.2c1.5,0,2.7,1.2,2.7,2.7c0,0,0,0,0,0v43.8c0,1.5-1.2,2.7-2.7,2.7c0,0,0,0,0,0h-43.8
				c-1.5,0-2.7-1.2-2.7-2.7l0,0V61.9c0-1.5,1.2-2.7,2.7-2.7c0,0,0,0,0,0H162 M162,58.2h-43.8c-2,0-3.7,1.7-3.7,3.7v43.9
				c0,2,1.7,3.7,3.7,3.7H162c2.1,0,3.7-1.7,3.7-3.7V61.9C165.7,59.9,164.1,58.2,162,58.2L162,58.2z"/>
			<g class="st1">
				<path class="st2" d="M143.8,93.6l-7.1-7.2v7.2h-3.1V70.5h3.1v10.3l7.4-7.3h4.3l-10.1,9.9l10.1,10.2H143.8z"/>
			</g>
			<g class="st1">
				<path class="st3" d="M143.8,93.6l-7.1-7.2v7.2h-3.1V70.5h3.1v10.3l7.4-7.3h4.3l-10.1,9.9l10.1,10.2H143.8z"/>
			</g>
			<g class="st1">
				<path class="st2" d="M143.8,93.6l-7.1-7.2v7.2h-3.1V70.5h3.1v10.3l7.4-7.3h4.3l-10.1,9.9l10.1,10.2H143.8z"/>
			</g>
			<g class="st1">
				<path class="st4" d="M143.8,93.6l-7.1-7.2v7.2h-3.1V70.5h3.1v10.3l7.4-7.3h4.3l-10.1,9.9l10.1,10.2H143.8z"/>
			</g>
			<path class="st0" d="M49.6,115.4c1.5,0,2.7,1.2,2.7,2.7c0,0,0,0,0,0V162c0,1.5-1.2,2.7-2.7,2.7c0,0,0,0,0,0H5.7
				c-1.5,0-2.7-1.2-2.7-2.7c0,0,0,0,0,0v-43.8c0-1.5,1.2-2.7,2.7-2.7c0,0,0,0,0,0H49.6 M49.6,114.4H5.7c-2,0-3.7,1.7-3.7,3.7V162
				c0,2.1,1.7,3.7,3.7,3.7h43.8c2.1,0,3.7-1.7,3.7-3.7v-43.8C53.3,116.1,51.6,114.5,49.6,114.4z"/>
			<g class="st1">
				<path class="st2" d="M24.8,146.7h9.1v3.1H21.6v-20h10.8v3.1h-7.6v3.4h7.6v3.1h-7.6V146.7z"/>
			</g>
			<g class="st1">
				<path class="st3" d="M24.8,146.7h9.1v3.1H21.6v-20h10.8v3.1h-7.6v3.4h7.6v3.1h-7.6V146.7z"/>
			</g>
			<g class="st1">
				<path class="st2" d="M24.8,146.7h9.1v3.1H21.6v-20h10.8v3.1h-7.6v3.4h7.6v3.1h-7.6V146.7z"/>
			</g>
			<g class="st1">
				<path class="st4" d="M24.8,146.7h9.1v3.1H21.6v-20h10.8v3.1h-7.6v3.4h7.6v3.1h-7.6V146.7z"/>
			</g>
			<path class="st0" d="M105.8,115.4c1.5,0,2.7,1.2,2.7,2.7l0,0V162c0,1.5-1.2,2.7-2.7,2.7c0,0,0,0,0,0H61.9c-1.5,0-2.7-1.2-2.7-2.7
				l0,0v-43.8c0-1.5,1.2-2.7,2.7-2.7c0,0,0,0,0,0H105.8 M105.8,114.4H61.9c-2,0-3.7,1.7-3.7,3.7V162c0,2.1,1.7,3.7,3.7,3.7h43.8
				c2.1,0,3.7-1.7,3.7-3.7v-43.8C109.5,116.1,107.8,114.5,105.8,114.4z"/>
			<g class="st1">
				<path class="st2" d="M82.3,140.6l-6.8-10.1h3.9l4.4,7.3l6.5-10.3H94l-8.5,13.2v9.9h-3.1V140.6z"/>
			</g>
			<g class="st1">
				<path class="st3" d="M82.3,140.6l-6.8-10.1h3.9l4.4,7.3l6.5-10.3H94l-8.5,13.2v9.9h-3.1V140.6z"/>
			</g>
			<g class="st1">
				<path class="st2" d="M82.3,140.6l-6.8-10.1h3.9l4.4,7.3l6.5-10.3H94l-8.5,13.2v9.9h-3.1V140.6z"/>
			</g>
			<g class="st1">
				<path class="st4" d="M82.3,140.6l-6.8-10.1h3.9l4.4,7.3l6.5-10.3H94l-8.5,13.2v9.9h-3.1V140.6z"/>
			</g>
			<path class="st0" d="M162.1,115.6c1.5,0,2.7,1.2,2.7,2.7c0,0,0,0,0,0v43.8c0,1.5-1.2,2.7-2.7,2.7l0,0h-43.8
				c-1.5,0-2.7-1.2-2.7-2.7c0,0,0,0,0,0v-43.8c0-1.5,1.2-2.7,2.7-2.7H162.1 M162.1,114.6h-43.8c-2,0-3.7,1.7-3.7,3.7v43.8
				c0,2,1.7,3.7,3.7,3.7c0,0,0,0,0,0h43.8c2,0,3.7-1.7,3.7-3.7c0,0,0,0,0,0v-43.8C165.8,116.2,164.2,114.5,162.1,114.6
				C162.1,114.5,162.1,114.5,162.1,114.6z"/>
			<g class="st1">
				<path class="st2" d="M145.1,143c0-1.9-1.1-2.9-3.4-2.9h-2.2c-4.1,0-6.2-1.9-6.2-5.7c0-3.6,2-5.4,6.1-5.4h7v3.1H139
					c-1.8,0-2.7,0.8-2.7,2.4c0,0.8,0.2,1.4,0.7,1.9c0.4,0.4,1.1,0.6,2,0.6h2.2c4.6,0,6.9,2,6.9,6c0,4-2.3,6-6.8,6h-7.8V146h8.2
					C143.9,146,145.1,145,145.1,143z"/>
			</g>
			<g class="st1">
				<path class="st3" d="M145.1,143c0-1.9-1.1-2.9-3.4-2.9h-2.2c-4.1,0-6.2-1.9-6.2-5.7c0-3.6,2-5.4,6.1-5.4h7v3.1H139
					c-1.8,0-2.7,0.8-2.7,2.4c0,0.8,0.2,1.4,0.7,1.9c0.4,0.4,1.1,0.6,2,0.6h2.2c4.6,0,6.9,2,6.9,6c0,4-2.3,6-6.8,6h-7.8V146h8.2
					C143.9,146,145.1,145,145.1,143z"/>
			</g>
			<g class="st1">
				<path class="st2" d="M145.1,143c0-1.9-1.1-2.9-3.4-2.9h-2.2c-4.1,0-6.2-1.9-6.2-5.7c0-3.6,2-5.4,6.1-5.4h7v3.1H139
					c-1.8,0-2.7,0.8-2.7,2.4c0,0.8,0.2,1.4,0.7,1.9c0.4,0.4,1.1,0.6,2,0.6h2.2c4.6,0,6.9,2,6.9,6c0,4-2.3,6-6.8,6h-7.8V146h8.2
					C143.9,146,145.1,145,145.1,143z"/>
			</g>
			<g class="st1">
				<path class="st4" d="M145.1,143c0-1.9-1.1-2.9-3.4-2.9h-2.2c-4.1,0-6.2-1.9-6.2-5.7c0-3.6,2-5.4,6.1-5.4h7v3.1H139
					c-1.8,0-2.7,0.8-2.7,2.4c0,0.8,0.2,1.4,0.7,1.9c0.4,0.4,1.1,0.6,2,0.6h2.2c4.6,0,6.9,2,6.9,6c0,4-2.3,6-6.8,6h-7.8V146h8.2
					C143.9,146,145.1,145,145.1,143z"/>
			</g>
		</g>
		<g class="st1">
			<path class="st2" d="M201.7,39.3h45.5c23.1,0,34.6,8.8,34.6,26.5c0,16.4-9.7,25.3-29.1,26.7l28.1,39.8h-16.5l-27.4-39.7h-20.2
				v24.4h-14.9V39.3z M267.5,66c0-9.7-6.1-14.5-18.4-14.5h-32.5v29.1h32.5C261.4,80.6,267.5,75.7,267.5,66z"/>
		</g>
		<g class="st1">
			<path class="st3" d="M201.7,39.3h45.5c23.1,0,34.6,8.8,34.6,26.5c0,16.4-9.7,25.3-29.1,26.7l28.1,39.8h-16.5l-27.4-39.7h-20.2
				v24.4h-14.9V39.3z M267.5,66c0-9.7-6.1-14.5-18.4-14.5h-32.5v29.1h32.5C261.4,80.6,267.5,75.7,267.5,66z"/>
		</g>
		<g class="st1">
			<path class="st2" d="M392.7,132.4h-16.9l-17.2-27.5H304l-7.2,12.2h-16.9l51-83.9L392.7,132.4z M311,92.7h40.6l-20.2-34.9
				L311,92.7z"/>
			<path class="st2" d="M402.7,132.4h-14.8V39.3h45.4c23.1,0,34.6,8.8,34.6,26.5c0,17.9-11.5,26.8-34.6,26.8h-30.6V132.4z M453.7,66
				c0-9.7-6.2-14.5-18.5-14.5h-32.5v29.1h32.5C447.5,80.6,453.7,75.7,453.7,66z"/>
			<path class="st2" d="M475.1,117.1V39.3h14.8v77.8H475.1z"/>
			<path class="st2" d="M502.1,39.3h34.1c15.8,0,27.5,3.1,35.2,9.4c7.7,6.3,11.5,15.9,11.5,28.7c0,13-3.9,22.9-11.6,29.6
				c-7.7,6.7-19.3,10-34.9,10h-34.3V39.3z M567.9,77.4c0-8.8-2.3-15.3-6.8-19.6s-11.4-6.4-20.8-6.4h-23.4v53.5h23.4
				c9.1,0,16-2.3,20.6-7C565.6,93.3,567.9,86.4,567.9,77.4z"/>
			<path class="st2" d="M641.8,117.1l-33.7-28v28h-14.8V27.4h14.8v40.1l35-28.3h20.5l-48,38.3l48,39.5H641.8z"/>
		</g>
		<g class="st1">
			<path class="st3" d="M392.7,132.4h-16.9l-17.2-27.5H304l-7.2,12.2h-16.9l51-83.9L392.7,132.4z M311,92.7h40.6l-20.2-34.9
				L311,92.7z"/>
			<path class="st3" d="M402.7,132.4h-14.8V39.3h45.4c23.1,0,34.6,8.8,34.6,26.5c0,17.9-11.5,26.8-34.6,26.8h-30.6V132.4z M453.7,66
				c0-9.7-6.2-14.5-18.5-14.5h-32.5v29.1h32.5C447.5,80.6,453.7,75.7,453.7,66z"/>
			<path class="st3" d="M475.1,117.1V39.3h14.8v77.8H475.1z"/>
			<path class="st3" d="M502.1,39.3h34.1c15.8,0,27.5,3.1,35.2,9.4c7.7,6.3,11.5,15.9,11.5,28.7c0,13-3.9,22.9-11.6,29.6
				c-7.7,6.7-19.3,10-34.9,10h-34.3V39.3z M567.9,77.4c0-8.8-2.3-15.3-6.8-19.6s-11.4-6.4-20.8-6.4h-23.4v53.5h23.4
				c9.1,0,16-2.3,20.6-7C565.6,93.3,567.9,86.4,567.9,77.4z"/>
			<path class="st3" d="M641.8,117.1l-33.7-28v28h-14.8V27.4h14.8v40.1l35-28.3h20.5l-48,38.3l48,39.5H641.8z"/>
		</g>
		<g class="st1">
			<path class="st2" d="M685.1,105h43.3v12.1h-58.2V39.3h51.1v12.1h-36.2v13.3h36.2v12.1h-36.2V105z"/>
		</g>
		<g class="st1">
			<path class="st3" d="M685.1,105h43.3v12.1h-58.2V39.3h51.1v12.1h-36.2v13.3h36.2v12.1h-36.2V105z"/>
		</g>
		<g class="st1">
			<path class="st2" d="M763.8,78.7l-32.3-39.4h18.6l21,28.3l30.6-40.1h17.2l-40.2,51.3v38.4h-14.9V78.7z"/>
		</g>
		<g class="st1">
			<path class="st3" d="M763.8,78.7l-32.3-39.4h18.6l21,28.3l30.6-40.1h17.2l-40.2,51.3v38.4h-14.9V78.7z"/>
		</g>
		<g class="st1">
			<path class="st2" d="M866,93.6c0-7.4-5.4-11.1-16.2-11.1h-10.4c-19.4,0-29.1-7.3-29.1-22c0-14,9.7-21.1,29-21.1h33.3v12.1h-35.1
				c-8.4,0-12.6,3.1-12.6,9.2c0,3.1,1,5.5,3.1,7.2c2.1,1.7,5.3,2.5,9.5,2.5h10.5c21.7,0,32.5,7.8,32.5,23.5
				c0,15.6-10.8,23.3-32.3,23.3h-36.9V105h38.6C860.6,105,866,101.2,866,93.6z"/>
		</g>
		<g class="st1">
			<path class="st3" d="M866,93.6c0-7.4-5.4-11.1-16.2-11.1h-10.4c-19.4,0-29.1-7.3-29.1-22c0-14,9.7-21.1,29-21.1h33.3v12.1h-35.1
				c-8.4,0-12.6,3.1-12.6,9.2c0,3.1,1,5.5,3.1,7.2c2.1,1.7,5.3,2.5,9.5,2.5h10.5c21.7,0,32.5,7.8,32.5,23.5
				c0,15.6-10.8,23.3-32.3,23.3h-36.9V105h38.6C860.6,105,866,101.2,866,93.6z"/>
		</g>
	</g>
</g>
</svg>
