<svg xmlns="http://www.w3.org/2000/svg" viewBox="0 0 167.83 167.83"><defs><style>.cls-1,.cls-2,.cls-3{fill:#fff;stroke:#fff;stroke-miterlimit:10;}.cls-1{stroke-width:4px;}.cls-2,.cls-3{isolation:isolate;font-size:28.11px;font-family:Stentiga-Regular, Stentiga;}.cls-3{stroke-width:1.6px;}</style></defs><title>5Asset 4</title><g id="Layer_2" data-name="Layer 2"><g id="Layer_1-2" data-name="Layer 1"><g id="Layer_1-2-2" data-name="Layer 1-2"><path class="cls-1" d="M49.57,3a2.71,2.71,0,0,1,2.71,2.72V49.57a2.71,2.71,0,0,1-2.71,2.71H5.72A2.71,2.71,0,0,1,3,49.57V5.72A2.72,2.72,0,0,1,5.72,3H49.57m0-1H5.72A3.74,3.74,0,0,0,2,5.72V49.57a3.74,3.74,0,0,0,3.72,3.72H49.57a3.74,3.74,0,0,0,3.72-3.72V5.72A3.74,3.74,0,0,0,49.57,2Z"/><text class="cls-2" transform="translate(18.7 34.71)">R</text><text class="cls-3" transform="translate(18.7 34.71)">R</text><path class="cls-1" d="M105.79,3a2.72,2.72,0,0,1,2.72,2.72V49.57a2.71,2.71,0,0,1-2.72,2.71H61.94a2.71,2.71,0,0,1-2.71-2.71V5.72A2.71,2.71,0,0,1,61.94,3h43.85m0-1H61.94a3.74,3.74,0,0,0-3.72,3.72V49.57a3.74,3.74,0,0,0,3.72,3.72h43.85a3.74,3.74,0,0,0,3.72-3.72V5.72A3.74,3.74,0,0,0,105.79,2Z"/><text class="cls-2" transform="translate(73.16 35.55)">A</text><text class="cls-3" transform="translate(73.16 35.55)">A</text><path class="cls-1" d="M162,3a2.71,2.71,0,0,1,2.71,2.72V49.57A2.71,2.71,0,0,1,162,52.28H118.17a2.71,2.71,0,0,1-2.72-2.71V5.72A2.72,2.72,0,0,1,118.17,3H162m0-1H118.17a3.74,3.74,0,0,0-3.72,3.72V49.57a3.74,3.74,0,0,0,3.72,3.72H162a3.72,3.72,0,0,0,3.71-3.72V5.72A3.72,3.72,0,0,0,162,2Z"/><text class="cls-2" transform="translate(131.48 34.71)">P</text><text class="cls-3" transform="translate(131.48 34.71)">P</text><path class="cls-1" d="M49.57,59.23a2.71,2.71,0,0,1,2.71,2.71v43.85a2.71,2.71,0,0,1-2.71,2.72H5.72A2.72,2.72,0,0,1,3,105.79V61.94a2.71,2.71,0,0,1,2.72-2.71H49.57m0-1H5.72A3.74,3.74,0,0,0,2,61.94v43.85a3.74,3.74,0,0,0,3.72,3.72H49.57a3.74,3.74,0,0,0,3.72-3.72V61.94a3.74,3.74,0,0,0-3.72-3.72Z"/><text class="cls-2" transform="translate(24.22 93.61)">I</text><text class="cls-3" transform="translate(24.22 93.61)">I</text><path class="cls-1" d="M105.79,59.23a2.71,2.71,0,0,1,2.72,2.71v43.85a2.72,2.72,0,0,1-2.72,2.72H61.94a2.71,2.71,0,0,1-2.71-2.72V61.94a2.71,2.71,0,0,1,2.71-2.71h43.85m0-1H61.94a3.74,3.74,0,0,0-3.72,3.72v43.85a3.74,3.74,0,0,0,3.72,3.72h43.85a3.74,3.74,0,0,0,3.72-3.72V61.94A3.74,3.74,0,0,0,105.79,58.22Z"/><text class="cls-2" transform="translate(74.67 93.61)">D</text><text class="cls-3" transform="translate(74.67 93.61)">D</text><path class="cls-1" d="M162,59.23a2.71,2.71,0,0,1,2.71,2.71v43.85a2.71,2.71,0,0,1-2.71,2.72H118.17a2.72,2.72,0,0,1-2.72-2.72V61.94a2.71,2.71,0,0,1,2.72-2.71H162m0-1H118.17a3.74,3.74,0,0,0-3.72,3.72v43.85a3.74,3.74,0,0,0,3.72,3.72H162a3.72,3.72,0,0,0,3.71-3.72V61.94A3.72,3.72,0,0,0,162,58.22Z"/><text class="cls-2" transform="translate(132.34 93.61)">K</text><text class="cls-3" transform="translate(132.34 93.61)">K</text><path class="cls-1" d="M49.57,115.45a2.71,2.71,0,0,1,2.71,2.72V162a2.71,2.71,0,0,1-2.71,2.71H5.72A2.71,2.71,0,0,1,3,162V118.17a2.72,2.72,0,0,1,2.72-2.72H49.57m0-1H5.72A3.74,3.74,0,0,0,2,118.17V162a3.72,3.72,0,0,0,3.72,3.71H49.57A3.72,3.72,0,0,0,53.29,162V118.17A3.74,3.74,0,0,0,49.57,114.45Z"/><text class="cls-2" transform="translate(20.45 149.83)">E</text><text class="cls-3" transform="translate(20.45 149.83)">E</text><path class="cls-1" d="M105.79,115.45a2.72,2.72,0,0,1,2.72,2.72V162a2.71,2.71,0,0,1-2.72,2.71H61.94A2.71,2.71,0,0,1,59.23,162V118.17a2.71,2.71,0,0,1,2.71-2.72h43.85m0-1H61.94a3.74,3.74,0,0,0-3.72,3.72V162a3.72,3.72,0,0,0,3.72,3.71h43.85a3.72,3.72,0,0,0,3.72-3.71V118.17A3.74,3.74,0,0,0,105.79,114.45Z"/><text class="cls-2" transform="translate(75.68 150.5)">Y</text><text class="cls-3" transform="translate(75.68 150.5)">Y</text><path class="cls-1" d="M162.11,115.55a2.71,2.71,0,0,1,2.72,2.71v43.85a2.72,2.72,0,0,1-2.72,2.72H118.26a2.71,2.71,0,0,1-2.71-2.72V118.26a2.71,2.71,0,0,1,2.71-2.71h43.85m0-1H118.26a3.71,3.71,0,0,0-3.71,3.71v43.85a3.71,3.71,0,0,0,3.71,3.72h43.85a3.71,3.71,0,0,0,3.72-3.72V118.26A3.71,3.71,0,0,0,162.11,114.55Z"/><text class="cls-2" transform="translate(132.23 149.09)">S</text><text class="cls-3" transform="translate(132.23 149.09)">S</text></g></g></g></svg>